<?xml version="1.0" encoding="UTF-8" standalone="no"?>
<svg xmlns="http://www.w3.org/2000/svg" width="200" height="60" viewBox="0 0 200 60" fill="none">
  <path d="M20.5 10C14.1487 10 9 15.1487 9 21.5C9 27.8513 14.1487 33 20.5 33C26.8513 33 32 27.8513 32 21.5C32 15.1487 26.8513 10 20.5 10Z" fill="#1E40AF"/>
  <path d="M20.5 36C12.4919 36 6 42.4919 6 50.5H35C35 42.4919 28.5081 36 20.5 36Z" fill="#1E40AF"/>
  <path d="M45 15H65C68.3137 15 71 17.6863 71 21V25C71 28.3137 68.3137 31 65 31H45V15Z" fill="#1E40AF"/>
  <path d="M45 35H65C68.3137 35 71 37.6863 71 41V45C71 48.3137 68.3137 51 65 51H45V35Z" fill="#1E40AF"/>
  <path d="M80 15H100C103.314 15 106 17.6863 106 21V45C106 48.3137 103.314 51 100 51H80V15Z" fill="#1E40AF"/>
  <path d="M115 15H135C138.314 15 141 17.6863 141 21V25C141 28.3137 138.314 31 135 31H115V15Z" fill="#1E40AF"/>
  <path d="M115 35H135C138.314 35 141 37.6863 141 41V45C141 48.3137 138.314 51 135 51H115V35Z" fill="#1E40AF"/>
  <path d="M150 15H170C173.314 15 176 17.6863 176 21V45C176 48.3137 173.314 51 170 51H150V15Z" fill="#1E40AF"/>
  <path d="M185 15H190C193.314 15 196 17.6863 196 21V45C196 48.3137 193.314 51 190 51H185V15Z" fill="#1E40AF"/>
</svg>